<svg width="20" height="20" fill="none" xmlns="http://www.w3.org/2000/svg"><path fill-rule="evenodd" clip-rule="evenodd" d="M12.018.113 12 .11l-.017-.002a18.143 18.143 0 0 0-3.966 0L8 .11l-.018.002c-.939.12-1.748.58-2.316 1.08-.568.498-1.092 1.209-1.229 2.035l-.002.015-.003.015a12.317 12.317 0 0 0 0 3.483l.003.016.002.015c.137.826.661 1.537 1.229 2.036.083.073.172.146.266.216a31.41 31.41 0 0 0-1.917.32l-.011.002c-.902.19-1.723.72-2.336 1.34-.617.62-1.102 1.412-1.246 2.22l-.002.009a44.395 44.395 0 0 0-.378 2.937L0 16.279l.398.248A18.114 18.114 0 0 0 10 19.25c3.555 0 6.853-1.009 9.602-2.723L20 16.28l-.041-.427a44.517 44.517 0 0 0-.378-2.937l-.002-.01c-.144-.807-.63-1.598-1.245-2.22-.614-.619-1.435-1.148-2.336-1.339l-.012-.002a31.416 31.416 0 0 0-1.917-.32c.094-.07.183-.143.266-.216.568-.499 1.092-1.21 1.229-2.036l.002-.015.003-.016c.165-1.16.165-2.322 0-3.483l-.003-.015-.002-.015c-.137-.826-.661-1.537-1.229-2.036-.568-.499-1.377-.959-2.317-1.08Zm-3.79 1.484c-.952.123-1.963 1.01-2.102 1.847a11 11 0 0 0 0 3.112c.139.836 1.15 1.724 2.103 1.846 1.18.13 2.362.13 3.542 0 .953-.121 1.964-1.01 2.103-1.846a11.002 11.002 0 0 0 0-3.112c-.139-.836-1.15-1.725-2.103-1.847a16.2 16.2 0 0 0-3.542 0ZM2.955 11.67c.459-.462.99-.767 1.443-.864a28.522 28.522 0 0 1 11.206 0c.453.097.984.402 1.443.864.455.46.76.997.846 1.464.132.802.236 1.606.321 2.412A16.252 16.252 0 0 1 10 17.75c-3.008 0-5.818-.807-8.213-2.204.085-.806.19-1.61.321-2.412.085-.467.391-1.005.846-1.464Z" fill="#fff"/></svg>