<svg width="35" height="35" fill="none" xmlns="http://www.w3.org/2000/svg"><g clip-path="url(#a)" fill="#fff"><path d="M12.629 6.506c.566 0 1.025-.459 1.025-1.025V3.416a1.025 1.025 0 0 0-2.05 0v2.065c0 .566.459 1.025 1.025 1.025ZM3.326 10.26 1.538 9.227a1.025 1.025 0 1 0-1.025 1.776L2.3 12.036a1.025 1.025 0 1 0 1.025-1.776ZM2.301 21.593.513 22.626a1.025 1.025 0 1 0 1.025 1.776l1.788-1.033a1.025 1.025 0 1 0-1.025-1.776Zm20.656-9.557 1.788-1.033a1.025 1.025 0 1 0-1.025-1.776l-1.788 1.033a1.025 1.025 0 1 0 1.025 1.776Zm4.312 6.234a7.708 7.708 0 0 0-7.153-4.805c-1.284-2.858-4.156-4.854-7.487-4.854-4.523 0-8.203 3.68-8.203 8.204a8.203 8.203 0 0 0 3.795 6.914c-2.43 3.84.334 8.877 4.882 8.877 16.134-.017 15.25.04 15.532-.046A7.178 7.178 0 0 0 35 25.428c0-4.212-3.599-7.481-7.731-7.158ZM6.477 16.815a6.16 6.16 0 0 1 6.152-6.153 6.155 6.155 0 0 1 5.346 3.114 7.69 7.69 0 0 0-5.526 7.301 5.68 5.68 0 0 0-2.806 1.115 6.156 6.156 0 0 1-3.166-5.377Zm21.77 13.722c-.365.03-9.67.013-15.144.018-3.381 0-5.029-4.191-2.513-6.488a3.69 3.69 0 0 1 2.856-.957c.661.06 1.2-.513 1.109-1.164-.476-3.393 2.151-6.43 5.584-6.43a5.65 5.65 0 0 1 5.442 4.156c.142.523.667.845 1.197.735 3.196-.66 6.171 1.782 6.171 5.02 0 2.65-2.065 4.895-4.702 5.11Z"/></g><defs><clipPath id="a"><path fill="#fff" d="M0 0h35v35H0z"/></clipPath></defs></svg>