<svg width="69" height="67" fill="none" xmlns="http://www.w3.org/2000/svg"><path d="M69 32.336c0 15.846-11.688 29.014-26.897 31.336a7.32 7.32 0 0 0 .078-2.17l-.21-1.793a27.713 27.713 0 0 0 14.139-6.96 3.749 3.749 0 0 1-.69-.776c-1.027-1.497.315-2.983.315-4.292 0-1.285-2.59-1.18-2.684-2.03-.328-2.946 1.808-2.986 2.946-4.124 1.138-1.139-1.125-3.726-2.587-3.56-1.472.158-5.615-.68-5.236-3.849.46-3.86-4.92-3.52-5.69-5.322-1.123-2.627.744-5.848 3.18-6.58 3.448-1.037 6.846-3.85 6.58-6.983-.3-3.548-1.906-6.747-4.55-8.648a27.573 27.573 0 0 0-8.825-1.978c-2.77.11-5.207.725-5.096 1.994.273 3.109 9.113 3.916 7.63 6.823-.774 1.514-6.578 3.653-5.494 5.907.705 1.467 2.44.21 1.792 3.025-.298 1.295-1.433 3.729-3.18 3.886-1.786.166-3.273-4.565-8.134-4.72-2.299-.074-5.536 3.586-2.787 6.182 1.665 1.572 4.789-1.89 5.71.814.65 1.906-.087 5.909 2.946 7.581 1.105.61 2.8 1.142 4.476 1.994-2.488.508-5.545 1.456-9.154 2.846l-3.041-.802c1.273-1.06 3.341-1.806 2.82-4.122-.764-3.402-6.671-2.12-10.744-6.192-1.25-1.249-3.914-5.397-3.903-10.381a27.599 27.599 0 0 0-3.186 12.894c0 1.432.11 2.839.32 4.213-.048 0-.096-.01-.144-.01a9.24 9.24 0 0 0-3.706.78 31.795 31.795 0 0 1-.395-4.983C5.6 14.856 19.82.635 37.3.635S69 14.856 69 32.335Zm-23.78 9.24-7.741 3.558.12-1.687 5.015-2.264a30.992 30.992 0 0 0-2.196-.07c-2.771 0-7.453 1.402-12.632 3.457l-16.608-4.38a5.798 5.798 0 0 0-4.564.697l-.816.513c-.798.5-.806 1.66-.016 2.172l9.983 6.477a122.89 122.89 0 0 0-6.642 3.641L4 50.978a3.222 3.222 0 0 0-2.705-.144l-.485.195a1.288 1.288 0 0 0-.644 1.828l2.822 5.014h.002c-1.065.916-1.672 1.675-1.672 2.201 0 1.574 1.936 1.967 3.643 1.967 3.044 0 43.245-9.205 43.245-17.544 0-1.651-1.13-2.477-2.985-2.92Zm-16.95 16.28 8.847-3.116a.644.644 0 0 1 .854.533l.776 6.631a3.866 3.866 0 0 1-2.21 3.955l-.83.386a1.289 1.289 0 0 1-1.51-.317L28 58.89a.644.644 0 0 1 .27-1.033Z" fill="#fff"/></svg>